:SAMPLES-PER-SECOND 30
:FULLY-SPECIFIED
:DEGREES
831
root  21.6064 38.9862 21.6428 -148.322 -80.6675 148.897
RightUpLeg  7.49232 -9.78312 -7.14068
RightLeg  9.23017 2.02145 -0.176314
RightFoot  -21.1351 0.151835 3.43681
RightToes  -6.98493e-010 0 -3.6325e-017
Spine  7.22891 -0.248191 4.19128
Spine1  7.55585 0.807122 -3.33733
HEad  13.3145 -3.29732 -2.67809
LeftShoulder1  0.0708295 3.30439 -29.3829
LeftArm  2.0665 19.9151 -39.2601
LeftForeArm  15.9932 -22.059 -4.19454
LeftHand  -0.0409784 4.66047 2.84977
RightShoulder  -0.579316 -5.28748 25.7313
RightArm  8.35128 -11.1941 42.7404
RightForeArm  1.4197 12.0568 4.85042
RightHand  -0.416676 3.55116 -5.65302
LeftUpLeg  -15.7382 0.35437 -6.19785
LeftLeg  14.7557 -1.10412 -0.100432
LeftFoot  -4.09812 -0.0078386 0.580174
LeftToes  7.91257e-010 -1.64976e-010 -3.02228e-011
832
root  20.9575 38.9017 21.4776 -146.704 -80.0032 146.469
RightUpLeg  8.95983 -9.2181 -7.84978
RightLeg  9.9723 1.81121 -0.594029
RightFoot  -21.7424 0.202828 3.85494
RightToes  -6.98493e-010 0 -3.6325e-017
Spine  7.27163 -0.084418 2.26832
Spine1  7.8145 1.02914 -3.84773
HEad  13.2105 -3.18159 -2.39041
LeftShoulder1  0.0641694 3.32339 -29.4623
LeftArm  1.08704 19.8292 -38.3817
LeftForeArm  16.7207 -19.9555 -4.60837
LeftHand  -0.0322444 5.01792 2.41934
RightShoulder  -0.58738 -5.30021 25.9421
RightArm  10.3532 -10.3002 44.7963
RightForeArm  1.17612 16.1935 4.74106
RightHand  -0.366891 3.44456 -5.07905
LeftUpLeg  -14.5616 0.236338 -6.82227
LeftLeg  16.2144 -0.839834 0.00370949
LeftFoot  -4.57045 -0.0824509 1.83539
LeftToes  7.91257e-010 -1.64976e-010 -3.02228e-011
833
root  20.3188 38.7563 21.3035 -144.975 -79.1887 143.854
RightUpLeg  9.05834 -7.29714 -8.36342
RightLeg  13.3819 -0.138178 -1.05551
RightFoot  -22.2634 0.190843 3.56299
RightToes  -6.98493e-010 0 -3.6325e-017
Spine  8.12955 0.164114 0.979725
Spine1  7.14944 1.55586 -5.2892
HEad  12.8875 -2.97339 -1.87724
LeftShoulder1  0.135057 3.12258 -29.2834
LeftArm  -1.78413 18.8672 -37.5672
LeftForeArm  18.8595 -16.3004 -5.57575
LeftHand  -0.0326847 4.96026 1.9558
RightShoulder  -0.628839 -5.40812 26.2838
RightArm  12.2965 -10.0113 46.8451
RightForeArm  1.46546 20.9125 4.69764
RightHand  -0.313408 3.87091 -4.19933
LeftUpLeg  -13.3372 0.714915 -7.51907
LeftLeg  17.7453 -0.802672 0.0250058
LeftFoot  -6.25048 -0.012559 1.14161
LeftToes  7.91257e-010 -1.64976e-010 -3.02228e-011
834
root  19.7318 38.6388 21.1352 -146.321 -78.063 144.679
RightUpLeg  7.49972 -5.01992 -8.85662
RightLeg  19.0992 -1.60771 -0.793442
RightFoot  -22.2359 0.348622 5.23586
RightToes  -6.98493e-010 0 -3.6325e-017
Spine  8.64765 0.580243 -0.32804
Spine1  6.71693 2.03381 -6.25429
HEad  12.4856 -2.30704 -2.28551
LeftShoulder1  0.134641 3.12418 -29.3456
LeftArm  -4.77598 17.8919 -37.1905
LeftForeArm  21.4354 -13.2325 -6.21453
LeftHand  -0.0171159 6.18862 1.92633
RightShoulder  -0.496355 -5.03585 25.5901
RightArm  13.2332 -9.49014 49.2056
RightForeArm  3.25138 25.7142 5.31426
RightHand  -0.395134 3.33858 -5.47545
LeftUpLeg  -12.4696 2.50728 -7.80591
LeftLeg  19.1907 -1.42738 -0.220916
LeftFoot  -7.89363 0.0202732 0.885867
LeftToes  7.91257e-010 -1.64976e-010 -3.02228e-011
835
root  19.1299 38.5522 21.0076 -150.094 -76.3887 147.657
RightUpLeg  5.13942 -4.62007 -9.88742
RightLeg  26.5693 -0.325436 -0.376027
RightFoot  -20.9872 0.598437 8.85642
RightToes  -6.98493e-010 0 -3.6325e-017
Spine  9.15604 1.02964 -1.07842
Spine1  6.62029 2.643 -7.76149
HEad  11.4479 -1.39982 -2.39449
LeftShoulder1  0.0579078 3.34232 -29.8277
LeftArm  -6.03462 16.9904 -36.4909
LeftForeArm  21.7283 -11.2733 -6.50698
LeftHand  -0.00291286 6.87188 2.46877
RightShoulder  -0.478246 -4.965 25.8792
RightArm  16.9566 -7.3779 50.1932
RightForeArm  3.698 29.9435 6.32263
RightHand  -0.518131 3.88561 -6.7518
LeftUpLeg  -11.0997 3.68884 -7.91556
LeftLeg  20.4011 -0.892975 -0.0527962
LeftFoot  -9.70239 0.0511406 0.53541
LeftToes  7.91257e-010 -1.64976e-010 -3.02228e-011
